<?xml version="1.0" encoding="UTF-8"?>
<svg version="1.1" xmlns="http://www.w3.org/2000/svg" width="144" height="144">
<path d="M0 0 C5.74183705 5.07418158 8.96623418 10.33634935 10 18 C10.22909832 24.89706514 8.04600274 29.52072692 4 35 C3.34 34.01 2.68 33.02 2 32 C2.04640625 33.01578125 2.0928125 34.0315625 2.140625 35.078125 C2.39691498 43.29342013 1.92631843 49.96556343 -1.125 57.7421875 C-2.12045204 59.90723697 -2.12045204 59.90723697 -2 62 C-1.29504395 62.14099121 -0.59008789 62.28198242 0.13623047 62.42724609 C1.11994629 62.62398926 2.10366211 62.82073242 3.1171875 63.0234375 C4.2 63.24 5.2828125 63.4565625 6.3984375 63.6796875 C7.54570313 63.90914063 8.69296875 64.13859375 9.875 64.375 C10.98359375 64.59671875 12.0921875 64.8184375 13.234375 65.046875 C15.4372747 65.48745494 17.64007526 65.92853083 19.84277344 66.37011719 C21.87647653 66.77585133 23.91093254 67.17783867 25.94628906 67.57519531 C26.8328418 67.74889648 27.71939453 67.92259766 28.6328125 68.1015625 C29.4077002 68.25189941 30.18258789 68.40223633 30.98095703 68.55712891 C33 69 33 69 36 70 C36 70.66 36 71.32 36 72 C35.34 72 34.68 72 34 72 C34 78.93 34 85.86 34 93 C31.69 93 29.38 93 27 93 C27 85.74 27 78.48 27 71 C-11.01637735 65.33798635 -55.2314249 62.38017678 -93 71 C-92.030625 71.78375 -91.06125 72.5675 -90.0625 73.375 C-88.16037654 74.91288705 -87.10370043 75.79259913 -86 78 C-85.52789742 82.72102578 -85.26635908 85.65955345 -88.3125 89.4375 C-93.47981667 94.36447636 -99.20606853 93.07305303 -106 93 C-106 86.07 -106 79.14 -106 72 C-106.66 72 -107.32 72 -108 72 C-108 71.34 -108 70.68 -108 70 C-104.58308562 69.12396131 -101.14681264 68.3533028 -97.703125 67.58984375 C-96.49785156 67.32236328 -95.29257813 67.05488281 -94.05078125 66.77929688 C-92.79652344 66.50150391 -91.54226562 66.22371094 -90.25 65.9375 C-88.34541016 65.51500977 -88.34541016 65.51500977 -86.40234375 65.08398438 C-83.26833438 64.38884696 -80.1342162 63.69420417 -77 63 C-77.27352295 62.4126709 -77.5470459 61.8253418 -77.82885742 61.22021484 C-83.16429942 49.53989057 -84.42087153 38.71730442 -80.3125 26.375 C-75.61811983 14.56333376 -68.04855379 6.3645036 -56.5078125 1 C-44.90644995 -3.6260885 -34.84289829 -2.0751266 -23 1 C-23.99 0.01 -23.99 0.01 -25 -1 C-16.02260002 -4.31732734 -8.42406322 -5.3607675 0 0 Z M0 27 C1 29 1 29 1 29 Z M-98 77 C-98 80.3 -98 83.6 -98 87 C-96.68 86.34 -95.36 85.68 -94 85 C-93.79029441 80.85906302 -93.79029441 80.85906302 -95 77 C-95.99 77 -96.98 77 -98 77 Z " fill="#CA8213" transform="translate(108,28)"/>
<path d="M0 0 C5.74183705 5.07418158 8.96623418 10.33634935 10 18 C10.22909832 24.89706514 8.04600274 29.52072692 4 35 C3.34 34.01 2.68 33.02 2 32 C2.04640625 33.01578125 2.0928125 34.0315625 2.140625 35.078125 C2.39691498 43.29342013 1.92631843 49.96556343 -1.125 57.7421875 C-2.12045204 59.90723697 -2.12045204 59.90723697 -2 62 C-1.29504395 62.14099121 -0.59008789 62.28198242 0.13623047 62.42724609 C1.6118042 62.72236084 1.6118042 62.72236084 3.1171875 63.0234375 C4.2 63.24 5.2828125 63.4565625 6.3984375 63.6796875 C7.54570313 63.90914063 8.69296875 64.13859375 9.875 64.375 C10.98359375 64.59671875 12.0921875 64.8184375 13.234375 65.046875 C15.4372747 65.48745494 17.64007526 65.92853083 19.84277344 66.37011719 C21.87647653 66.77585133 23.91093254 67.17783867 25.94628906 67.57519531 C26.8328418 67.74889648 27.71939453 67.92259766 28.6328125 68.1015625 C29.4077002 68.25189941 30.18258789 68.40223633 30.98095703 68.55712891 C33 69 33 69 36 70 C36 70.66 36 71.32 36 72 C35.34 72 34.68 72 34 72 C34 78.93 34 85.86 34 93 C31.69 93 29.38 93 27 93 C27 85.74 27 78.48 27 71 C0.12800816 66.99778845 -26.88555045 66.49963705 -54 66 C-52.02 65.01 -52.02 65.01 -50 64 C-50.66 63.34 -51.32 62.68 -52 62 C-50.515 61.505 -50.515 61.505 -49 61 C-49 56.38 -49 51.76 -49 47 C-46.14282277 49.85717723 -44.28127071 51.82731978 -42.25 55.125 C-41.82203125 55.80820313 -41.3940625 56.49140625 -40.953125 57.1953125 C-40 59 -40 59 -40 61 C-39.01 61 -38.02 61 -37 61 C-40.83284814 53.62579575 -40.83284814 53.62579575 -45.375 46.6875 C-47.2781134 43.54004322 -47.34433822 41.61555133 -47 38 C-51.96911366 39.12697043 -51.96911366 39.12697043 -56 42 C-56 41.34 -56 40.68 -56 40 C-56.66 39.67 -57.32 39.34 -58 39 C-54.62902617 37.50178941 -52.79557881 37 -49 37 C-49.32742187 36.45859375 -49.65484375 35.9171875 -49.9921875 35.359375 C-51.21664767 32.49280933 -51.19892146 30.3547013 -51.125 27.25 C-51.10695313 26.26515625 -51.08890625 25.2803125 -51.0703125 24.265625 C-51.04710937 23.51796875 -51.02390625 22.7703125 -51 22 C-50.67 22 -50.34 22 -50 22 C-49.96261719 22.59167969 -49.92523438 23.18335937 -49.88671875 23.79296875 C-49.78810547 24.97826172 -49.78810547 24.97826172 -49.6875 26.1875 C-49.60048828 27.35345703 -49.60048828 27.35345703 -49.51171875 28.54296875 C-48.89933322 31.48335425 -47.64879127 33.51134186 -46 36 C-43.95737483 35.71512349 -41.91592973 35.42177949 -39.875 35.125 C-38.16957031 34.88136719 -38.16957031 34.88136719 -36.4296875 34.6328125 C-33.13921085 34.02568583 -30.14220897 33.13654367 -27 32 C-27.05220703 30.24623047 -27.05220703 30.24623047 -27.10546875 28.45703125 C-27.13361716 26.90886859 -27.16091619 25.36069032 -27.1875 23.8125 C-27.21263672 23.04357422 -27.23777344 22.27464844 -27.26367188 21.48242188 C-27.32415149 16.78517176 -26.99092457 13.85072353 -24 10 C-23.46375 9.484375 -22.9275 8.96875 -22.375 8.4375 C-20.71515152 6.70220387 -20.40263517 5.33528396 -20 3 C-22.475 1.02 -22.475 1.02 -25 -1 C-16.02260002 -4.31732734 -8.42406322 -5.3607675 0 0 Z M0 27 C1 29 1 29 1 29 Z " fill="#CB8314" transform="translate(108,28)"/>
<path d="M0 0 C5.74183705 5.07418158 8.96623418 10.33634935 10 18 C10.22909832 24.89706514 8.04600274 29.52072692 4 35 C2 32 2 32 2 30 C1.34 29.67 0.68 29.34 0 29 C0.33 28.34 0.66 27.68 1 27 C0.34 27 -0.32 27 -1 27 C-2.32 24.36 -3.64 21.72 -5 19 C-5.268125 19.94875 -5.53625 20.8975 -5.8125 21.875 C-7 25 -7 25 -10 27 C-13.83693587 27.41857482 -16.11203064 27.54644269 -19.4375 25.5 C-21.63290133 21.98735787 -21.81899186 19.0370508 -21 15 C-19.3125 12.5 -19.3125 12.5 -17 11 C-14.25 10.75 -14.25 10.75 -12 11 C-12 10.34 -12 9.68 -12 9 C-12.86625 8.62875 -12.86625 8.62875 -13.75 8.25 C-16.32546462 6.81918632 -17.95127149 5.11081119 -20 3 C-21.65191491 1.64843325 -23.31522656 0.31037934 -25 -1 C-16.02260002 -4.31732734 -8.42406322 -5.3607675 0 0 Z " fill="#FEFEFE" transform="translate(108,28)"/>
<path d="M0 0 C2.64 0 5.28 0 8 0 C8.62958174 1.51894235 9.25340464 3.04027195 9.875 4.5625 C10.22304688 5.40941406 10.57109375 6.25632812 10.9296875 7.12890625 C12.13334763 10.35770257 13.05335056 13.68672696 14 17 C14.33 11.39 14.66 5.78 15 0 C18.5578125 -0.0928125 18.5578125 -0.0928125 22.1875 -0.1875 C23.29387817 -0.22846802 23.29387817 -0.22846802 24.42260742 -0.27026367 C28.79599513 -0.32518941 31.62138851 0.16507312 35 3 C35.4375 6.5625 35.4375 6.5625 35 10 C34.34 10.66 33.68 11.32 33 12 C33.27802838 14.39388923 33.27802838 14.39388923 34 17 C34.33333333 18.66666667 34.66666667 20.33333333 35 22 C32.36 22 29.72 22 27 22 C26.01 19.69 25.02 17.38 24 15 C23.67 17.31 23.34 19.62 23 22 C17.72 22 12.44 22 7 22 C7 20.68 7 19.36 7 18 C5.02 18 3.04 18 1 18 C0.67 19.32 0.34 20.64 0 22 C-1.98 22 -3.96 22 -6 22 C-5.40421223 16.73378394 -4.18691204 12.05591981 -2.4375 7.0625 C-2.20353516 6.37865234 -1.96957031 5.69480469 -1.72851562 4.99023438 C-1.15788171 3.32491499 -0.57972902 1.66217507 0 0 Z M23 6 C23 6.66 23 7.32 23 8 C24.32 8 25.64 8 27 8 C27 7.34 27 6.68 27 6 C25.68 6 24.36 6 23 6 Z M3 9 C3 9.99 3 10.98 3 12 C3.66 11.67 4.32 11.34 5 11 C4.34 10.34 3.68 9.68 3 9 Z " fill="#8C172B" transform="translate(27,99)"/>
<path d="M0 0 C2.94956528 1.36944102 5.52468811 2.87830409 8 5 C8 5.66 8 6.32 8 7 C7.05125 7.28875 6.1025 7.5775 5.125 7.875 C1.94788422 8.76825109 1.94788422 8.76825109 0 11 C-0.24287489 13.44012949 -0.24287489 13.44012949 -0.125 16.125 C-0.10695313 17.03507812 -0.08890625 17.94515625 -0.0703125 18.8828125 C-0.04710938 19.58148438 -0.02390625 20.28015625 0 21 C3.52994613 22.17664871 6.29455413 22.19850603 10 22 C13.31460705 20.29107501 13.31460705 20.29107501 13.6875 16.875 C13.790625 15.92625 13.89375 14.9775 14 14 C16.98770538 16.56089033 18.54473565 19.36183914 20 23 C20 25.6875 20 25.6875 19 28 C13.80032791 31.93488699 9.48984866 32.20323763 3.25390625 31.37109375 C0.26860027 30.8795789 -2.26945059 30.33197532 -5 29 C-7.01732818 25.15878607 -7.29743392 21.79885561 -7.3125 17.5 C-7.32925781 16.3965625 -7.34601563 15.293125 -7.36328125 14.15625 C-6.78846972 9.16218854 -4.43347996 6.43347996 -1 3 C-0.67 2.01 -0.34 1.02 0 0 Z " fill="#D8A14D" transform="translate(88,32)"/>
<path d="M0 0 C2.31 0 4.62 0 7 0 C9.2294565 2.2294565 10.59926107 4.19852214 12 7 C12.33 4.69 12.66 2.38 13 0 C15.31 0 17.62 0 20 0 C20 7.26 20 14.52 20 22 C13 22 13 22 11.22265625 20.25 C10.83980469 19.5075 10.45695312 18.765 10.0625 18 C9.66160156 17.2575 9.26070312 16.515 8.84765625 15.75 C8.56792969 15.1725 8.28820312 14.595 8 14 C7.67 16.64 7.34 19.28 7 22 C4.69 22 2.38 22 0 22 C0 14.74 0 7.48 0 0 Z " fill="#8C172B" transform="translate(113,99)"/>
<path d="M0 0 C13.31898971 -0.36997194 13.31898971 -0.36997194 16.4375 1.32421875 C18 3 18 3 18.25 6 C18.1675 6.99 18.085 7.98 18 9 C18 9.99 18 10.98 18 12 C18.33 12.33 18.66 12.66 19 13 C19.29386153 16.72224599 19.14809171 17.77786243 17 21 C11.57364835 22.80878388 5.66885438 22.05200784 0 22 C0 14.74 0 7.48 0 0 Z M7 6 C7 6.66 7 7.32 7 8 C8.32 8 9.64 8 11 8 C11 7.34 11 6.68 11 6 C9.68 6 8.36 6 7 6 Z M7 14 C7 14.66 7 15.32 7 16 C8.65 15.67 10.3 15.34 12 15 C12 14.67 12 14.34 12 14 C10.35 14 8.7 14 7 14 Z " fill="#8D182C" transform="translate(84,99)"/>
<path d="M0 0 C0.53469802 1.72492978 1.05219175 3.455198 1.5625 5.1875 C1.85253906 6.15042969 2.14257812 7.11335938 2.44140625 8.10546875 C3.02461026 11.12752588 2.81178385 13.05929955 2 16 C-0.58067563 16.69918305 -3.16372847 17.38461049 -5.75 18.0625 C-6.47960937 18.26166016 -7.20921875 18.46082031 -7.9609375 18.66601562 C-11.67322022 19.62783433 -14.3609829 20.31345476 -18 19 C-21.73353941 14.73309782 -21.31478763 10.35138965 -21 5 C-14.36715739 2.24674458 -7.25877357 0 0 0 Z " fill="#060402" transform="translate(79,45)"/>
<path d="M0 0 C2.20934954 1.78852106 4.0458045 3.388484 5.328125 5.953125 C5.80022758 10.67415078 6.06176592 13.61267845 3.015625 17.390625 C-2.15169167 22.31760136 -7.87794353 21.02617803 -14.671875 20.953125 C-14.671875 14.023125 -14.671875 7.093125 -14.671875 -0.046875 C-2.78645833 -1.74479167 -2.78645833 -1.74479167 0 0 Z M-6.671875 4.953125 C-6.671875 8.253125 -6.671875 11.553125 -6.671875 14.953125 C-5.351875 14.293125 -4.031875 13.633125 -2.671875 12.953125 C-2.46216941 8.81218802 -2.46216941 8.81218802 -3.671875 4.953125 C-4.661875 4.953125 -5.651875 4.953125 -6.671875 4.953125 Z " fill="#8C172B" transform="translate(16.671875,100.046875)"/>
<path d="M0 0 C2.64 0 5.28 0 8 0 C8 5.28 8 10.56 8 16 C9.65 16 11.3 16 13 16 C13 10.72 13 5.44 13 0 C14.98 0 16.96 0 19 0 C19.13510253 2.91821463 19.2341305 5.83017652 19.3125 8.75 C19.35439453 9.575 19.39628906 10.4 19.43945312 11.25 C19.56259303 17.35773908 19.56259303 17.35773908 16.765625 20.55078125 C12.70866007 22.67667672 9.46997702 22.70182817 5 22 C1.71068486 20.27310955 1.1859733 19.5579199 0 16 C-0.07051114 13.26134713 -0.09357765 10.54972412 -0.0625 7.8125 C-0.05798828 7.06291016 -0.05347656 6.31332031 -0.04882812 5.54101562 C-0.03706354 3.69397617 -0.01912865 1.84697787 0 0 Z " fill="#8D182C" transform="translate(63,99)"/>
<path d="M0 0 C18.48 0 36.96 0 56 0 C56 1.32 56 2.64 56 4 C56.66 4 57.32 4 58 4 C58 4.66 58 5.32 58 6 C38.86 6 19.72 6 0 6 C0 4.02 0 2.04 0 0 Z M40 2 C41 4 41 4 41 4 Z " fill="#8D182C" transform="translate(46,123)"/>
<path d="M0 0 C1.33278992 0.00303635 1.33278992 0.00303635 2.69250488 0.00613403 C3.5987561 0.00517731 4.50500732 0.00422058 5.4387207 0.00323486 C7.35876535 0.002553 9.27881229 0.00440771 11.19885254 0.00857544 C14.14861192 0.01392361 17.09821902 0.00863066 20.04797363 0.00222778 C21.90865105 0.00288856 23.76932838 0.00416972 25.63000488 0.00613403 C26.51853149 0.0041098 27.40705811 0.00208557 28.32250977 0 C34.546305 0.02399665 34.546305 0.02399665 35.66125488 1.13894653 C35.66125488 2.78894653 35.66125488 4.43894653 35.66125488 6.13894653 C21.47125488 6.13894653 7.28125488 6.13894653 -7.33874512 6.13894653 C-7.33874512 -1.0252956 -6.54739114 0.02524431 0 0 Z " fill="#8D182C" transform="translate(9.3387451171875,122.86105346679688)"/>
<path d="M0 0 C0.2475 1.60875 0.2475 1.60875 0.5 3.25 C1.81120717 8.71988665 5.07760141 12.85695143 8.3203125 17.36328125 C10 20 10 20 10 23 C9.01 23 8.02 23 7 23 C5.45704199 20.85224966 4.1240944 18.78165246 2.8125 16.5 C2.44447266 15.87996094 2.07644531 15.25992188 1.69726562 14.62109375 C0.7883265 13.0865212 -0.1071247 11.5439744 -1 10 C-1.33 14.29 -1.66 18.58 -2 23 C-2.99 23 -3.98 23 -5 23 C-5.33 18.38 -5.66 13.76 -6 9 C-6.54269531 9.92683594 -7.08539063 10.85367188 -7.64453125 11.80859375 C-8.36672614 13.01850467 -9.0894078 14.22812513 -9.8125 15.4375 C-10.16892578 16.04916016 -10.52535156 16.66082031 -10.89257812 17.29101562 C-13.66015625 21.88671875 -13.66015625 21.88671875 -17 23 C-16.32407361 17.25462568 -13.09651312 13.53511837 -9.8125 8.9375 C-8.08845564 6.14335914 -7.37937585 4.22469472 -7 1 C-2.25 0 -2.25 0 0 0 Z " fill="#100D08" transform="translate(61,66)"/>
<path d="M0 0 C2.3125 2.75 2.3125 2.75 4.3125 5.75 C3.625 9.3125 3.625 9.3125 2.3125 12.75 C-1.4080836 15.23038907 -3.28546571 15.21337203 -7.6875 14.75 C-10.125 13.25 -10.125 13.25 -11.6875 10.75 C-12.24057474 7.9675209 -12.25288516 5.5312381 -11.6875 2.75 C-9.77052862 -0.01895867 -8.31173725 -0.97789658 -5.25 -2.3125 C-2.6875 -2.25 -2.6875 -2.25 0 0 Z " fill="#FEFBF8" transform="translate(98.6875,40.25)"/>
<path d="M0 0 C1.51815699 0.00015911 3.0363194 0.00585313 4.55444336 0.01586914 C5.35208603 0.01728409 6.1497287 0.01869904 6.97154236 0.02015686 C9.52916146 0.02577223 12.08669429 0.03832727 14.64428711 0.05102539 C16.37410356 0.05603841 18.10392137 0.06060166 19.83374023 0.06469727 C24.08312264 0.07574664 28.33244023 0.09302153 32.58178711 0.11352539 C32.25178711 2.09352539 31.92178711 4.07352539 31.58178711 6.11352539 C19.91512044 6.11352539 8.24845378 6.11352539 -3.41821289 6.11352539 C-3.80040056 4.45737882 -4.13216391 2.78895515 -4.41821289 1.11352539 C-3.41821289 0.11352539 -3.41821289 0.11352539 0 0 Z " fill="#8D182C" transform="translate(109.418212890625,122.886474609375)"/>
<path d="M0 0 C1.3921875 0.3403125 1.3921875 0.3403125 2.8125 0.6875 C2.8125 1.3475 2.8125 2.0075 2.8125 2.6875 C1.86375 2.97625 0.915 3.265 -0.0625 3.5625 C-3.23961578 4.45575109 -3.23961578 4.45575109 -5.1875 6.6875 C-5.43037489 9.12762949 -5.43037489 9.12762949 -5.3125 11.8125 C-5.29445313 12.72257812 -5.27640625 13.63265625 -5.2578125 14.5703125 C-5.23460938 15.26898438 -5.21140625 15.96765625 -5.1875 16.6875 C-1.65755387 17.86414871 1.10705413 17.88600603 4.8125 17.6875 C8.12710705 15.97857501 8.12710705 15.97857501 8.5 12.5625 C8.603125 11.61375 8.70625 10.665 8.8125 9.6875 C11.0602975 11.73983685 11.8147242 12.69417261 12.8125 15.6875 C11.15069262 19.09420513 10.00915902 20.55639399 6.8125 22.6875 C0.79059337 23.58611785 -3.84489516 22.41563864 -9.1875 19.6875 C-9.26910748 17.79239301 -9.32696459 15.89625496 -9.375 14 C-9.40980469 12.94425781 -9.44460937 11.88851562 -9.48046875 10.80078125 C-9.15105302 7.30019006 -8.19651689 5.53110848 -6.1875 2.6875 C-5.5378125 1.759375 -5.5378125 1.759375 -4.875 0.8125 C-3.1875 -0.3125 -3.1875 -0.3125 0 0 Z " fill="#E8C998" transform="translate(93.1875,36.3125)"/>
<path d="M0 0 C0 0.66 0 1.32 0 2 C-0.66 2 -1.32 2 -2 2 C-2 8.93 -2 15.86 -2 23 C-4.31 23 -6.62 23 -9 23 C-9 15.74 -9 8.48 -9 1 C-2 0 -2 0 0 0 Z " fill="#8F1D30" transform="translate(144,98)"/>
<path d="M0 0 C2.31 0 4.62 0 7 0 C7 7.26 7 14.52 7 22 C4.69 22 2.38 22 0 22 C0 14.74 0 7.48 0 0 Z " fill="#8D182C" transform="translate(104,99)"/>
<path d="M0 0 C0.99 4.29 1.98 8.58 3 13 C-2.87734242 14.02214651 -2.87734242 14.02214651 -6 14 C-8.0625 12.5 -8.0625 12.5 -9 10 C-9.3125 6.375 -9.3125 6.375 -9 3 C-6.40198864 0.40198864 -3.67135617 0 0 0 Z " fill="#0A0805" transform="translate(56,52)"/>
<path d="M0 0 C2.3125 2.75 2.3125 2.75 4.3125 5.75 C3.625 9.3125 3.625 9.3125 2.3125 12.75 C-1.4080836 15.23038907 -3.28546571 15.21337203 -7.6875 14.75 C-10.125 13.25 -10.125 13.25 -11.6875 10.75 C-12.24057474 7.9675209 -12.25288516 5.5312381 -11.6875 2.75 C-9.77052862 -0.01895867 -8.31173725 -0.97789658 -5.25 -2.3125 C-2.6875 -2.25 -2.6875 -2.25 0 0 Z M-9.6875 4.75 C-10.22153579 7.8016331 -9.91479501 9.28278248 -8.5625 12.0625 C-6.72794689 14.0273501 -6.72794689 14.0273501 -3.6875 14.1875 C-0.76016168 13.95737857 -0.76016168 13.95737857 1.1875 12.625 C2.84827671 9.85703881 2.70055206 7.91909182 2.3125 4.75 C1.27307155 2.30754253 1.27307155 2.30754253 -0.6875 0.75 C-5.09852838 -0.15482633 -7.0944147 1.19651274 -9.6875 4.75 Z " fill="#F4E5CE" transform="translate(98.6875,40.25)"/>
<path d="M0 0 C2.37123246 0.23029956 4.74741943 0.41119942 7.125 0.5625 C8.40632813 0.64628906 9.68765625 0.73007813 11.0078125 0.81640625 C12.48894531 0.90728516 12.48894531 0.90728516 14 1 C14 1.33 14 1.66 14 2 C13.40050537 2.05534912 12.80101074 2.11069824 12.18334961 2.16772461 C9.43456428 2.42253147 6.68603394 2.67999616 3.9375 2.9375 C2.52307617 3.06801758 2.52307617 3.06801758 1.08007812 3.20117188 C-7.97688235 3.76865173 -7.97688235 3.76865173 -16.625 6.125 C-19.48899614 7.18015647 -21.10751562 6.82642411 -24 6 C-24 5.34 -24 4.68 -24 4 C-19.63788402 2.90056497 -15.25984593 1.87942758 -10.875 0.875 C-10.05128906 0.68035156 -9.22757813 0.48570313 -8.37890625 0.28515625 C-7.59128906 0.10597656 -6.80367187 -0.07320313 -5.9921875 -0.2578125 C-5.27401855 -0.4242627 -4.55584961 -0.59071289 -3.81591797 -0.76220703 C-2 -1 -2 -1 0 0 Z " fill="#CE9043" transform="translate(24,94)"/>
<path d="M0 0 C3.16115776 1.36983503 3.9927092 1.9890638 6 5 C4.8553125 5.1546875 4.8553125 5.1546875 3.6875 5.3125 C0.6748858 6.08316875 -0.12396975 6.58200545 -2 9 C-2.79162493 11.72486722 -2.79162493 11.72486722 -3.1875 14.6875 C-3.42533203 16.17830078 -3.42533203 16.17830078 -3.66796875 17.69921875 C-3.77753906 18.45847656 -3.88710937 19.21773437 -4 20 C-4.99 20.33 -5.98 20.66 -7 21 C-7.55839416 10.34914842 -7.55839416 10.34914842 -4 6 C-3 5 -2 4 -1 3 C-0.67 2.01 -0.34 1.02 0 0 Z " fill="#DCA95A" transform="translate(88,32)"/>
<path d="M0 0 C1.85766602 0.25366211 1.85766602 0.25366211 4.25390625 0.77734375 C5.10791016 0.96103516 5.96191406 1.14472656 6.84179688 1.33398438 C7.73962891 1.53314453 8.63746094 1.73230469 9.5625 1.9375 C10.46419922 2.13279297 11.36589844 2.32808594 12.29492188 2.52929688 C14.53111969 3.01439799 16.76600846 3.50485482 19 4 C15.67398918 6.21734055 15.24128236 6.19251514 11.5078125 5.69140625 C10.62125977 5.58199707 9.73470703 5.47258789 8.82128906 5.35986328 C7.89026367 5.2411084 6.95923828 5.12235352 6 5 C4.14391129 4.81465172 2.28711345 4.63627343 0.4296875 4.46484375 C-0.48554687 4.37783203 -1.40078125 4.29082031 -2.34375 4.20117188 C-3.72046875 4.0706543 -3.72046875 4.0706543 -5.125 3.9375 C-6.08148438 3.84662109 -7.03796875 3.75574219 -8.0234375 3.66210938 C-10.3489376 3.44118687 -12.67445856 3.22048675 -15 3 C-15 2.67 -15 2.34 -15 2 C-14.00097656 1.93941406 -13.00195312 1.87882812 -11.97265625 1.81640625 C-10.68230469 1.73261719 -9.39195313 1.64882812 -8.0625 1.5625 C-6.77472656 1.48128906 -5.48695312 1.40007812 -4.16015625 1.31640625 C-1.13976043 1.35080812 -1.13976043 1.35080812 0 0 Z " fill="#D19333" transform="translate(122,93)"/>
<path d="M0 0 C0.66 2.97 1.32 5.94 2 9 C0.02 9.33 -1.96 9.66 -4 10 C-6.29013653 6.5647952 -6.17842973 5.014669 -6 1 C-3.92446352 0.4465236 -2.15634036 0 0 0 Z " fill="#080605" transform="translate(45,57)"/>
<path d="M0 0 C-0.9620932 2.14620792 -1.6747067 3.72892225 -3.5 5.25 C-5.62998632 7.73498404 -5.73883009 9.97778452 -6.1875 13.1875 C-6.34605469 14.27417969 -6.50460938 15.36085938 -6.66796875 16.48046875 C-6.77753906 17.31191406 -6.88710937 18.14335938 -7 19 C-8.4606285 16.35261084 -9 15.10551666 -9 12 C-10.65 12 -12.3 12 -14 12 C-11 10 -11 10 -9 10 C-8.938125 9.278125 -8.87625 8.55625 -8.8125 7.8125 C-7.4965507 3.25729087 -4.88904933 0 0 0 Z " fill="#CF9131" transform="translate(88,33)"/>
<path d="M0 0 C0.33 0 0.66 0 1 0 C1.03738281 0.59167969 1.07476562 1.18335938 1.11328125 1.79296875 C1.59043039 8.4504903 1.59043039 8.4504903 5 14 C8.59919423 14.89592083 8.59919423 14.89592083 12 15 C12 15.33 12 15.66 12 16 C11.21625 16.12375 10.4325 16.2475 9.625 16.375 C6.85942178 16.79117993 6.85942178 16.79117993 5 19 C4.67 18.34 4.34 17.68 4 17 C-1.01535052 17.32960216 -1.01535052 17.32960216 -5 20 C-5 19.34 -5 18.68 -5 18 C-5.66 17.67 -6.32 17.34 -7 17 C-3.62902617 15.50178941 -1.79557881 15 2 15 C1.67257813 14.45859375 1.34515625 13.9171875 1.0078125 13.359375 C-0.21664767 10.49280933 -0.19892146 8.3547013 -0.125 5.25 C-0.10695313 4.26515625 -0.08890625 3.2803125 -0.0703125 2.265625 C-0.04710937 1.51796875 -0.02390625 0.7703125 0 0 Z " fill="#D98F1A" transform="translate(57,50)"/>
<path d="M0 0 C0.99 0.99 1.98 1.98 3 3 C1.25 8.75 1.25 8.75 -1 11 C-3.6015625 11.1953125 -3.6015625 11.1953125 -6.625 11.125 C-8.12933594 11.09792969 -8.12933594 11.09792969 -9.6640625 11.0703125 C-10.43492188 11.04710937 -11.20578125 11.02390625 -12 11 C-12.66 9.68 -13.32 8.36 -14 7 C-13.01 7.33 -12.02 7.66 -11 8 C-5.66704568 8.343491 -5.66704568 8.343491 -1 6 C-0.26656572 2.93443402 -0.26656572 2.93443402 0 0 Z " fill="#ECD2A9" transform="translate(102,46)"/>
<path d="M0 0 C0.66 0 1.32 0 2 0 C1.8125 2.3125 1.8125 2.3125 1 5 C-3.47329332 8.38519495 -7.26445321 9.28852825 -12.75 8.5625 C-13.54921875 8.46066406 -14.3484375 8.35882813 -15.171875 8.25390625 C-15.77515625 8.17011719 -16.3784375 8.08632813 -17 8 C-17 7.67 -17 7.34 -17 7 C-16.12988281 6.96132813 -16.12988281 6.96132813 -15.2421875 6.921875 C-9.5718727 6.51016897 -6.51425597 5.41321793 -2 2 C-1.34 2 -0.68 2 0 2 C0 1.34 0 0.68 0 0 Z " fill="#D29332" transform="translate(106,55)"/>
<path d="M0 0 C0.66 0.66 1.32 1.32 2 2 C0.19587357 5.26460973 -0.83394693 6.88929795 -4 9 C-10.02190663 9.89861785 -14.65739516 8.72813864 -20 6 C-19.67 4.68 -19.34 3.36 -19 2 C-19 2.66 -19 3.32 -19 4 C-15.29870703 5.69895415 -12.37833604 6.27218737 -8.3125 6.25 C-6.88357422 6.25773437 -6.88357422 6.25773437 -5.42578125 6.265625 C-2.81898636 6.23627741 -2.81898636 6.23627741 -1 4 C-0.3574765 1.93125966 -0.3574765 1.93125966 0 0 Z " fill="#E0B674" transform="translate(104,50)"/>
<path d="M0 0 C-0.598125 0.268125 -1.19625 0.53625 -1.8125 0.8125 C-4.07100952 2.03854802 -5.47062652 2.93534581 -7 5 C-7.46856135 8.74849077 -7.15502531 9.76746204 -5 13 C-1.93443402 13.73343428 -1.93443402 13.73343428 1 14 C1 14.33 1 14.66 1 15 C-5.625 15.25 -5.625 15.25 -9 13 C-9.65056063 9.9640504 -9.48859903 7.05645836 -9 4 C-6.47371562 0.16379039 -4.5024696 -0.5002744 0 0 Z " fill="#F7EAD8" transform="translate(97,40)"/>
<path d="M0 0 C0.66 0.33 1.32 0.66 2 1 C2.309375 2.11375 2.61875 3.2275 2.9375 4.375 C3.91204934 7.69993306 4.3498113 8.95212691 7 11 C4.125 10.8125 4.125 10.8125 1 10 C-0.83924479 7.12118206 -1.07602934 5.57022006 -0.625 2.1875 C-0.41875 1.465625 -0.2125 0.74375 0 0 Z " fill="#D29538" transform="translate(82,51)"/>
<path d="M0 0 C0.33 0 0.66 0 1 0 C1.36 5.4 1.36 5.4 -0.125 7.875 C-2.78034983 9.4682099 -4.96789518 9.20214032 -8 9 C-8 8.01 -8 7.02 -8 6 C-5.69 6 -3.38 6 -1 6 C-0.67 4.02 -0.34 2.04 0 0 Z " fill="#FAF3E9" transform="translate(100,45)"/>
<path d="M0 0 C0.79921875 0.11085938 1.5984375 0.22171875 2.421875 0.3359375 C3.32679688 0.47902344 3.32679688 0.47902344 4.25 0.625 C0.79785147 2.92643236 0.01520676 2.76333854 -3.9375 2.25 C-5.28908203 2.08371094 -5.28908203 2.08371094 -6.66796875 1.9140625 C-7.35503906 1.81867188 -8.04210937 1.72328125 -8.75 1.625 C-5.5750906 -0.2828584 -3.64414789 -0.5359041 0 0 Z " fill="#DBA84E" transform="translate(136.75,96.375)"/>
</svg>
